Oxygen-Bold.ufo
<glyph name="four" format="1">
  <advance width="1232"/>
  <unicode hex="0034"/>
  <outline>
    <contour>
      <point x="1188" y="309" type="line"/>
      <point x="1023" y="309" type="line"/>
      <point x="1023" y="0" type="line"/>
      <point x="724" y="0" type="line"/>
      <point x="724" y="309" type="line"/>
      <point x="68" y="309" type="line"/>
      <point x="68" y="496" type="line"/>
      <point x="640" y="1445" type="line"/>
      <point x="1023" y="1445" type="line"/>
      <point x="1023" y="525" type="line"/>
      <point x="1202" y="525" type="line"/>
    </contour>
    <contour>
      <point x="726" y="1179" type="line"/>
      <point x="356" y="524" type="line"/>
      <point x="726" y="524" type="line"/>
    </contour>
  </outline>
</glyph>
<glyph name="six" format="1">
  <advance width="1232"/>
  <unicode hex="0036"/>
  <outline>
    <contour>
      <point x="662" y="1445" type="line"/>
      <point x="1023" y="1445" type="line"/>
      <point x="598" y="907" type="line"/>
      <point x="632" y="914"/>
      <point x="646" y="918"/>
      <point x="682" y="918" type="curve" smooth="yes"/>
      <point x="979" y="918"/>
      <point x="1188" y="734"/>
      <point x="1188" y="459" type="curve" smooth="yes"/>
      <point x="1188" y="164"/>
      <point x="945" y="-20"/>
      <point x="630" y="-20" type="curve" smooth="yes"/>
      <point x="305" y="-20"/>
      <point x="64" y="160"/>
      <point x="64" y="460" type="curve" smooth="yes"/>
      <point x="64" y="644"/>
      <point x="162" y="780"/>
      <point x="244" y="893" type="curve"/>
    </contour>
    <contour>
      <point x="886" y="455" type="curve" smooth="yes"/>
      <point x="886" y="617"/>
      <point x="805" y="717"/>
      <point x="620" y="717" type="curve" smooth="yes"/>
      <point x="434" y="717"/>
      <point x="360" y="611"/>
      <point x="360" y="450" type="curve" smooth="yes"/>
      <point x="360" y="294"/>
      <point x="451" y="195"/>
      <point x="616" y="195" type="curve" smooth="yes"/>
      <point x="787" y="195"/>
      <point x="886" y="298"/>
    </contour>
  </outline>
</glyph>
<glyph name="P" format="1">
  <advance width="1221"/>
  <unicode hex="0050"/>
  <outline>
    <contour>
      <point x="423" y="0" type="line"/>
      <point x="125" y="0" type="line"/>
      <point x="125" y="1452" type="line"/>
      <point x="616" y="1452" type="line" smooth="yes"/>
      <point x="970" y="1452"/>
      <point x="1197" y="1315"/>
      <point x="1197" y="1000" type="curve" smooth="yes"/>
      <point x="1197" y="740"/>
      <point x="1071" y="525"/>
      <point x="636" y="525" type="curve" smooth="yes"/>
      <point x="574" y="525"/>
      <point x="499" y="524"/>
      <point x="423" y="531" type="curve"/>
    </contour>
    <contour>
      <point x="591" y="735" type="curve" smooth="yes"/>
      <point x="862" y="735"/>
      <point x="908" y="867"/>
      <point x="908" y="989" type="curve" smooth="yes"/>
      <point x="908" y="1147"/>
      <point x="804" y="1236"/>
      <point x="617" y="1236" type="curve" smooth="yes"/>
      <point x="423" y="1236" type="line"/>
      <point x="423" y="737" type="line"/>
      <point x="448" y="734"/>
      <point x="534" y="735"/>
    </contour>
  </outline>
</glyph>
<glyph name="R" format="1">
  <advance width="1323"/>
  <unicode hex="0052"/>
  <outline>
    <contour>
      <point x="1338" y="0" type="line"/>
      <point x="1023" y="0" type="line"/>
      <point x="860" y="348" type="line" smooth="yes"/>
      <point x="823" y="426"/>
      <point x="731" y="598"/>
      <point x="731" y="598" type="curve"/>
      <point x="718" y="600"/>
      <point x="681" y="601"/>
      <point x="638" y="601" type="curve" smooth="yes"/>
      <point x="424" y="601" type="line"/>
      <point x="424" y="0" type="line"/>
      <point x="125" y="0" type="line"/>
      <point x="125" y="1452" type="line"/>
      <point x="691" y="1452" type="line" smooth="yes"/>
      <point x="1034" y="1452"/>
      <point x="1251" y="1376"/>
      <point x="1251" y="1040" type="curve" smooth="yes"/>
      <point x="1251" y="838"/>
      <point x="1158" y="716"/>
      <point x="992" y="654" type="curve"/>
      <point x="1055" y="583"/>
      <point x="1087" y="513"/>
      <point x="1133" y="421" type="curve"/>
    </contour>
    <contour>
      <point x="424" y="1235" type="line"/>
      <point x="424" y="812" type="line"/>
      <point x="699" y="812" type="line" smooth="yes"/>
      <point x="891" y="812"/>
      <point x="975" y="877"/>
      <point x="975" y="1035" type="curve" smooth="yes"/>
      <point x="975" y="1175"/>
      <point x="881" y="1235"/>
      <point x="706" y="1235" type="curve" smooth="yes"/>
    </contour>
  </outline>
</glyph>
<glyph name="c" format="1">
  <advance width="976"/>
  <unicode hex="0063"/>
  <outline>
    <contour>
      <point x="938" y="74" type="line"/>
      <point x="844" y="13"/>
      <point x="754" y="-20"/>
      <point x="618" y="-20" type="curve" smooth="yes"/>
      <point x="299" y="-20"/>
      <point x="62" y="171"/>
      <point x="62" y="572" type="curve" smooth="yes"/>
      <point x="62" y="954"/>
      <point x="334" y="1117"/>
      <point x="597" y="1117" type="curve" smooth="yes"/>
      <point x="745" y="1117"/>
      <point x="841" y="1084"/>
      <point x="926" y="1022" type="curve"/>
      <point x="879" y="847" type="line"/>
      <point x="834" y="880"/>
      <point x="726" y="927"/>
      <point x="629" y="927" type="curve" smooth="yes"/>
      <point x="467" y="927"/>
      <point x="334" y="822"/>
      <point x="334" y="562" type="curve" smooth="yes"/>
      <point x="334" y="293"/>
      <point x="455" y="171"/>
      <point x="635" y="171" type="curve" smooth="yes"/>
      <point x="737" y="171"/>
      <point x="824" y="211"/>
      <point x="884" y="254" type="curve"/>
    </contour>
  </outline>
</glyph>
<glyph name="d" format="1">
  <advance width="1254"/>
  <unicode hex="0064"/>
  <outline>
    <contour>
      <point x="560" y="-20" type="curve" smooth="yes"/>
      <point x="246" y="-20"/>
      <point x="62" y="236"/>
      <point x="62" y="565" type="curve" smooth="yes"/>
      <point x="62" y="872"/>
      <point x="235" y="1117"/>
      <point x="553" y="1117" type="curve" smooth="yes"/>
      <point x="738" y="1117"/>
      <point x="830" y="1033"/>
      <point x="870" y="956" type="curve"/>
      <point x="870" y="1498" type="line"/>
      <point x="1153" y="1516" type="line"/>
      <point x="1153" y="0" type="line"/>
      <point x="876" y="0" type="line"/>
      <point x="870" y="149" type="line"/>
      <point x="818" y="53"/>
      <point x="719" y="-20"/>
    </contour>
    <contour>
      <point x="609" y="171" type="curve" smooth="yes"/>
      <point x="745" y="171"/>
      <point x="874" y="269"/>
      <point x="874" y="556" type="curve" smooth="yes"/>
      <point x="874" y="840"/>
      <point x="740" y="927"/>
      <point x="609" y="927" type="curve" smooth="yes"/>
      <point x="481" y="927"/>
      <point x="334" y="854"/>
      <point x="334" y="556" type="curve" smooth="yes"/>
      <point x="334" y="272"/>
      <point x="477" y="171"/>
    </contour>
  </outline>
</glyph>
<glyph name="e" format="1">
  <advance width="1124"/>
  <unicode hex="0065"/>
  <outline>
    <contour>
      <point x="344" y="646" type="curve"/>
      <point x="813" y="646" type="line"/>
      <point x="813" y="829"/>
      <point x="734" y="927"/>
      <point x="594" y="927" type="curve" smooth="yes"/>
      <point x="499" y="927"/>
      <point x="359" y="872"/>
    </contour>
    <contour>
      <point x="639" y="-20" type="curve" smooth="yes"/>
      <point x="265" y="-20"/>
      <point x="62" y="205"/>
      <point x="62" y="559" type="curve" smooth="yes"/>
      <point x="62" y="883"/>
      <point x="256" y="1117"/>
      <point x="591" y="1117" type="curve" smooth="yes"/>
      <point x="919" y="1117"/>
      <point x="1070" y="877"/>
      <point x="1070" y="584" type="curve" smooth="yes"/>
      <point x="1070" y="557"/>
      <point x="1068" y="522"/>
      <point x="1068" y="494" type="curve"/>
      <point x="341" y="494" type="line"/>
      <point x="347" y="287"/>
      <point x="459" y="173"/>
      <point x="649" y="173" type="curve" smooth="yes"/>
      <point x="784" y="173"/>
      <point x="895" y="222"/>
      <point x="960" y="273" type="curve"/>
      <point x="1039" y="105" type="line"/>
      <point x="945" y="34"/>
      <point x="822" y="-20"/>
    </contour>
  </outline>
</glyph>
<glyph name="f" format="1">
  <advance width="728"/>
  <unicode hex="0066"/>
  <outline>
    <contour>
      <point x="14" y="929" type="line"/>
      <point x="14" y="1098" type="line"/>
      <point x="191" y="1098" type="line"/>
      <point x="191" y="1129" type="line" smooth="yes"/>
      <point x="191" y="1391"/>
      <point x="223" y="1546"/>
      <point x="607" y="1546" type="curve" smooth="yes"/>
      <point x="703" y="1546" type="line"/>
      <point x="727" y="1336" type="line"/>
      <point x="632" y="1336" type="line" smooth="yes"/>
      <point x="502" y="1336"/>
      <point x="474" y="1290"/>
      <point x="474" y="1176" type="curve" smooth="yes"/>
      <point x="474" y="1098" type="line"/>
      <point x="720" y="1098" type="line"/>
      <point x="720" y="929" type="line"/>
      <point x="474" y="929" type="line"/>
      <point x="474" y="0" type="line"/>
      <point x="191" y="0" type="line"/>
      <point x="191" y="929" type="line"/>
    </contour>
  </outline>
</glyph>
<glyph name="l" format="1">
  <advance width="687"/>
  <unicode hex="006C"/>
  <outline>
    <contour>
      <point x="122" y="456" type="curve" smooth="yes"/>
      <point x="122" y="1496" type="line"/>
      <point x="405" y="1516" type="line"/>
      <point x="405" y="440" type="line" smooth="yes"/>
      <point x="405" y="224"/>
      <point x="431" y="171"/>
      <point x="563" y="171" type="curve" smooth="yes"/>
      <point x="596" y="171"/>
      <point x="635" y="175"/>
      <point x="682" y="180" type="curve"/>
      <point x="695" y="1" type="line"/>
      <point x="695" y="1"/>
      <point x="579" y="-13"/>
      <point x="523" y="-13" type="curve" smooth="yes"/>
      <point x="189" y="-13"/>
      <point x="122" y="145"/>
    </contour>
  </outline>
</glyph>
<glyph name="n" format="1">
  <advance width="1211"/>
  <unicode hex="006E"/>
  <outline>
    <contour>
      <point x="746" y="1118" type="curve" smooth="yes"/>
      <point x="1010" y="1118"/>
      <point x="1120" y="938"/>
      <point x="1120" y="668" type="curve" smooth="yes"/>
      <point x="1120" y="0" type="line"/>
      <point x="837" y="0" type="line"/>
      <point x="837" y="644" type="line" smooth="yes"/>
      <point x="837" y="798"/>
      <point x="827" y="927"/>
      <point x="655" y="927" type="curve" smooth="yes"/>
      <point x="547" y="927"/>
      <point x="432" y="840"/>
      <point x="384" y="752" type="curve"/>
      <point x="384" y="0" type="line"/>
      <point x="101" y="0" type="line"/>
      <point x="101" y="1098" type="line"/>
      <point x="337" y="1098" type="line"/>
      <point x="360" y="957" type="line"/>
      <point x="446" y="1056"/>
      <point x="583" y="1118"/>
    </contour>
  </outline>
</glyph>
<glyph name="p" format="1">
  <advance width="1254"/>
  <unicode hex="0070"/>
  <outline>
    <contour>
      <point x="101" y="-410" type="line"/>
      <point x="101" y="1098" type="line"/>
      <point x="357" y="1098" type="line"/>
      <point x="377" y="956" type="line"/>
      <point x="445" y="1071"/>
      <point x="555" y="1118"/>
      <point x="700" y="1118" type="curve" smooth="yes"/>
      <point x="1032" y="1118"/>
      <point x="1192" y="850"/>
      <point x="1192" y="564" type="curve" smooth="yes"/>
      <point x="1192" y="250"/>
      <point x="1021" y="-18"/>
      <point x="704" y="-20" type="curve" smooth="yes"/>
      <point x="554" y="-20"/>
      <point x="450" y="27"/>
      <point x="384" y="132" type="curve"/>
      <point x="384" y="-381" type="line"/>
    </contour>
    <contour>
      <point x="380" y="556" type="curve" smooth="yes"/>
      <point x="380" y="268"/>
      <point x="520" y="171"/>
      <point x="659" y="171" type="curve" smooth="yes"/>
      <point x="789" y="171"/>
      <point x="920" y="278"/>
      <point x="920" y="556" type="curve" smooth="yes"/>
      <point x="920" y="854"/>
      <point x="778" y="927"/>
      <point x="650" y="927" type="curve" smooth="yes"/>
      <point x="519" y="927"/>
      <point x="380" y="840"/>
    </contour>
  </outline>
</glyph>
<glyph name="q" format="1">
  <advance width="1254"/>
  <unicode hex="0071"/>
  <outline>
    <contour>
      <point x="544" y="-20" type="curve" smooth="yes"/>
      <point x="233" y="-20"/>
      <point x="62" y="250"/>
      <point x="62" y="564" type="curve" smooth="yes"/>
      <point x="62" y="850"/>
      <point x="221" y="1118"/>
      <point x="553" y="1118" type="curve" smooth="yes"/>
      <point x="698" y="1118"/>
      <point x="803" y="1084"/>
      <point x="877" y="956" type="curve"/>
      <point x="897" y="1098" type="line"/>
      <point x="1153" y="1098" type="line"/>
      <point x="1153" y="-379" type="line"/>
      <point x="870" y="-410" type="line"/>
      <point x="870" y="150" type="line"/>
      <point x="803" y="44"/>
      <point x="720" y="-20"/>
    </contour>
    <contour>
      <point x="874" y="556" type="curve" smooth="yes"/>
      <point x="874" y="840"/>
      <point x="740" y="927"/>
      <point x="609" y="927" type="curve" smooth="yes"/>
      <point x="481" y="927"/>
      <point x="334" y="854"/>
      <point x="334" y="556" type="curve" smooth="yes"/>
      <point x="334" y="272"/>
      <point x="477" y="171"/>
      <point x="609" y="171" type="curve" smooth="yes"/>
      <point x="745" y="171"/>
      <point x="874" y="269"/>
    </contour>
  </outline>
</glyph>
<glyph name="r" format="1">
  <advance width="702"/>
  <unicode hex="0072"/>
  <outline>
    <contour>
      <point x="101" y="0" type="line"/>
      <point x="101" y="852" type="line"/>
      <point x="101" y="1098" type="line"/>
      <point x="363" y="1098" type="line"/>
      <point x="383" y="953" type="line"/>
      <point x="453" y="1048"/>
      <point x="527" y="1098"/>
      <point x="664" y="1098" type="curve" smooth="yes"/>
      <point x="693" y="1098" type="line"/>
      <point x="708" y="883" type="line"/>
      <point x="630" y="883" type="line" smooth="yes"/>
      <point x="422" y="883"/>
      <point x="384" y="773"/>
      <point x="384" y="610" type="curve" smooth="yes"/>
      <point x="384" y="0" type="line"/>
    </contour>
  </outline>
</glyph>
<glyph name="t" format="1">
  <advance width="788"/>
  <unicode hex="0074"/>
  <outline>
    <contour>
      <point x="483" y="927" type="line"/>
      <point x="483" y="453" type="line" smooth="yes"/>
      <point x="483" y="226"/>
      <point x="510" y="171"/>
      <point x="642" y="171" type="curve" smooth="yes"/>
      <point x="675" y="171"/>
      <point x="713" y="175"/>
      <point x="760" y="180" type="curve"/>
      <point x="774" y="1" type="line"/>
      <point x="774" y="1"/>
      <point x="658" y="-13"/>
      <point x="602" y="-13" type="curve" smooth="yes"/>
      <point x="268" y="-13"/>
      <point x="200" y="151"/>
      <point x="200" y="474" type="curve" smooth="yes"/>
      <point x="200" y="927" type="line"/>
      <point x="9" y="927" type="line"/>
      <point x="27" y="1098" type="line"/>
      <point x="220" y="1098" type="line"/>
      <point x="317" y="1354" type="line"/>
      <point x="483" y="1354" type="line"/>
      <point x="483" y="1098" type="line"/>
      <point x="754" y="1098" type="line"/>
      <point x="754" y="927" type="line"/>
    </contour>
  </outline>
</glyph>
<glyph name="u" format="1">
  <advance width="1138"/>
  <unicode hex="0075"/>
  <outline>
    <contour>
      <point x="88" y="399" type="curve" smooth="yes"/>
      <point x="88" y="1098" type="line"/>
      <point x="371" y="1098" type="line"/>
      <point x="371" y="398" type="line" smooth="yes"/>
      <point x="371" y="242"/>
      <point x="425" y="171"/>
      <point x="568" y="171" type="curve" smooth="yes"/>
      <point x="710" y="171"/>
      <point x="766" y="242"/>
      <point x="766" y="398" type="curve" smooth="yes"/>
      <point x="766" y="1098" type="line"/>
      <point x="1049" y="1098" type="line"/>
      <point x="1049" y="399" type="line" smooth="yes"/>
      <point x="1049" y="115"/>
      <point x="854" y="-20"/>
      <point x="568" y="-20" type="curve" smooth="yes"/>
      <point x="283" y="-20"/>
      <point x="88" y="112"/>
    </contour>
  </outline>
</glyph>
<glyph name="ae" format="1">
  <advance width="1680"/>
  <unicode hex="00E6"/>
  <outline>
    <contour>
      <point x="1213" y="931" type="curve" smooth="yes"/>
      <point x="1123" y="931"/>
      <point x="980" y="891"/>
      <point x="962" y="654" type="curve"/>
      <point x="1372" y="696" type="line"/>
      <point x="1372" y="696"/>
      <point x="1374" y="711"/>
      <point x="1374" y="734" type="curve" smooth="yes"/>
      <point x="1374" y="800"/>
      <point x="1356" y="931"/>
    </contour>
    <contour>
      <point x="460" y="162" type="curve" smooth="yes"/>
      <point x="562" y="162"/>
      <point x="653" y="219"/>
      <point x="730" y="295" type="curve"/>
      <point x="730" y="297"/>
      <point x="693" y="401"/>
      <point x="693" y="467" type="curve"/>
      <point x="593" y="453" type="line" smooth="yes"/>
      <point x="435" y="430"/>
      <point x="325" y="415"/>
      <point x="325" y="310" type="curve" smooth="yes"/>
      <point x="325" y="220"/>
      <point x="368" y="162"/>
    </contour>
    <contour>
      <point x="69" y="322" type="curve" smooth="yes"/>
      <point x="69" y="557"/>
      <point x="256" y="584"/>
      <point x="594" y="626" type="curve"/>
      <point x="686" y="635" type="line"/>
      <point x="686" y="736" type="line" smooth="yes"/>
      <point x="686" y="866"/>
      <point x="651" y="933"/>
      <point x="501" y="940" type="curve"/>
      <point x="375" y="940"/>
      <point x="236" y="882"/>
      <point x="188" y="865" type="curve"/>
      <point x="134" y="1058" type="line"/>
      <point x="235" y="1103"/>
      <point x="333" y="1133"/>
      <point x="512" y="1138" type="curve"/>
      <point x="688" y="1141"/>
      <point x="809" y="1079"/>
      <point x="851" y="968" type="curve"/>
      <point x="923" y="1058"/>
      <point x="1051" y="1139"/>
      <point x="1214" y="1139" type="curve" smooth="yes"/>
      <point x="1511" y="1139"/>
      <point x="1629" y="890"/>
      <point x="1629" y="605" type="curve" smooth="yes"/>
      <point x="1629" y="557"/>
      <point x="1563" y="540"/>
      <point x="1482" y="538" type="curve"/>
      <point x="1433" y="535"/>
      <point x="1091" y="507"/>
      <point x="961" y="497" type="curve"/>
      <point x="967" y="292"/>
      <point x="1069" y="186"/>
      <point x="1245" y="184" type="curve"/>
      <point x="1374" y="184"/>
      <point x="1475" y="220"/>
      <point x="1519" y="256" type="curve"/>
      <point x="1598" y="80" type="line"/>
      <point x="1509" y="19"/>
      <point x="1410" y="-20"/>
      <point x="1227" y="-20" type="curve" smooth="yes"/>
      <point x="1027" y="-20"/>
      <point x="909" y="46"/>
      <point x="831" y="147" type="curve"/>
      <point x="746" y="57"/>
      <point x="619" y="-21"/>
      <point x="413" y="-21" type="curve" smooth="yes"/>
      <point x="194" y="-21"/>
      <point x="69" y="147"/>
    </contour>
  </outline>
</glyph>
<glyph name="thorn" format="1">
  <advance width="1316"/>
  <unicode hex="00FE"/>
  <outline>
    <contour>
      <point x="416" y="103" type="curve"/>
      <point x="416" y="-422" type="line"/>
      <point x="172" y="-422" type="line"/>
      <point x="172" y="1202" type="line" smooth="yes"/>
      <point x="172" y="1289"/>
      <point x="165" y="1494"/>
      <point x="165" y="1494" type="curve"/>
      <point x="416" y="1494" type="line"/>
      <point x="416" y="940" type="line"/>
      <point x="416" y="940"/>
      <point x="538" y="1055"/>
      <point x="734" y="1055" type="curve" smooth="yes"/>
      <point x="1081" y="1055"/>
      <point x="1241" y="808"/>
      <point x="1241" y="508" type="curve" smooth="yes"/>
      <point x="1241" y="217"/>
      <point x="1090" y="-17"/>
      <point x="754" y="-17" type="curve" smooth="yes"/>
      <point x="529" y="-17"/>
      <point x="416" y="103"/>
    </contour>
    <contour>
      <point x="717" y="197" type="curve" smooth="yes"/>
      <point x="914" y="197"/>
      <point x="991" y="339"/>
      <point x="991" y="524" type="curve" smooth="yes"/>
      <point x="991" y="709"/>
      <point x="913" y="851"/>
      <point x="717" y="851" type="curve" smooth="yes"/>
      <point x="503" y="851"/>
      <point x="415" y="719"/>
      <point x="415" y="524" type="curve" smooth="yes"/>
      <point x="415" y="328"/>
      <point x="504" y="197"/>
    </contour>
  </outline>
</glyph>
<glyph name="oe" format="1">
  <advance width="1868"/>
  <unicode hex="0153"/>
  <outline>
    <contour>
      <point x="1118" y="650" type="curve"/>
      <point x="1560" y="650" type="line"/>
      <point x="1560" y="659" type="line" smooth="yes"/>
      <point x="1560" y="842"/>
      <point x="1491" y="927"/>
      <point x="1351" y="927" type="curve" smooth="yes"/>
      <point x="1256" y="927"/>
      <point x="1133" y="876"/>
    </contour>
    <contour>
      <point x="596" y="171" type="curve" smooth="yes"/>
      <point x="744" y="171"/>
      <point x="859" y="300"/>
      <point x="859" y="553" type="curve" smooth="yes"/>
      <point x="859" y="815"/>
      <point x="744" y="927"/>
      <point x="596" y="927" type="curve" smooth="yes"/>
      <point x="445" y="927"/>
      <point x="336" y="807"/>
      <point x="336" y="553" type="curve" smooth="yes"/>
      <point x="336" y="306"/>
      <point x="448" y="171"/>
    </contour>
    <contour>
      <point x="1786" y="105" type="line"/>
      <point x="1691" y="34"/>
      <point x="1588" y="-20"/>
      <point x="1405" y="-20" type="curve" smooth="yes"/>
      <point x="1197" y="-20"/>
      <point x="1058" y="47"/>
      <point x="986" y="165" type="curve"/>
      <point x="919" y="58"/>
      <point x="782" y="-20"/>
      <point x="598" y="-20" type="curve" smooth="yes"/>
      <point x="231" y="-20"/>
      <point x="64" y="243"/>
      <point x="64" y="553" type="curve" smooth="yes"/>
      <point x="64" y="878"/>
      <point x="231" y="1118"/>
      <point x="598" y="1118" type="curve" smooth="yes"/>
      <point x="782" y="1118"/>
      <point x="912" y="1048"/>
      <point x="988" y="940" type="curve"/>
      <point x="1057" y="1058"/>
      <point x="1186" y="1118"/>
      <point x="1369" y="1118" type="curve" smooth="yes"/>
      <point x="1698" y="1118"/>
      <point x="1817" y="877"/>
      <point x="1817" y="584" type="curve" smooth="yes"/>
      <point x="1817" y="556"/>
      <point x="1815" y="494"/>
      <point x="1815" y="494" type="curve"/>
      <point x="1115" y="494" type="line"/>
      <point x="1121" y="287"/>
      <point x="1222" y="171"/>
      <point x="1412" y="171" type="curve" smooth="yes"/>
      <point x="1547" y="171"/>
      <point x="1642" y="220"/>
      <point x="1707" y="271" type="curve"/>
    </contour>
  </outline>
</glyph>
<glyph name="hungarumlaut" format="1">
  <advance width="1037"/>
  <unicode hex="02DD"/>
  <outline>
    <contour>
      <point x="669" y="1490" type="line"/>
      <point x="303" y="1120" type="line"/>
      <point x="157" y="1120" type="line"/>
      <point x="419" y="1490" type="line"/>
    </contour>
    <contour>
      <point x="1006" y="1490" type="line"/>
      <point x="639" y="1120" type="line"/>
      <point x="494" y="1120" type="line"/>
      <point x="756" y="1490" type="line"/>
    </contour>
  </outline>
</glyph>
<glyph name="afii10066" format="1">
  <advance width="1113"/>
  <unicode hex="0431"/>
  <outline>
    <contour>
      <point x="787" y="362" type="curve" smooth="yes"/>
      <point x="787" y="438"/>
      <point x="733" y="511"/>
      <point x="625" y="511" type="curve" smooth="yes"/>
      <point x="387" y="511" type="line"/>
      <point x="387" y="201" type="line"/>
      <point x="631" y="201" type="line" smooth="yes"/>
      <point x="728" y="201"/>
      <point x="787" y="277"/>
    </contour>
    <contour>
      <point x="642" y="707" type="line" smooth="yes"/>
      <point x="840" y="707"/>
      <point x="1040" y="603"/>
      <point x="1040" y="360" type="curve" smooth="yes"/>
      <point x="1040" y="136"/>
      <point x="878" y="0"/>
      <point x="658" y="0" type="curve" smooth="yes"/>
      <point x="104" y="0" type="line"/>
      <point x="104" y="1098" type="line"/>
      <point x="930" y="1098" type="line"/>
      <point x="930" y="890" type="line"/>
      <point x="386" y="890" type="line"/>
      <point x="386" y="707" type="line"/>
    </contour>
  </outline>
</glyph>
<glyph name="afii10068" format="1">
  <advance width="762"/>
  <unicode hex="0433"/>
  <outline>
    <contour>
      <point x="700" y="883" type="line"/>
      <point x="387" y="883" type="line"/>
      <point x="387" y="0" type="line"/>
      <point x="104" y="0" type="line"/>
      <point x="104" y="1098" type="line"/>
      <point x="700" y="1098" type="line"/>
    </contour>
  </outline>
</glyph>
<glyph name="afii10072" format="1">
  <advance width="1597"/>
  <unicode hex="0436"/>
  <outline>
    <contour>
      <point x="670" y="629" type="line"/>
      <point x="670" y="1098" type="line"/>
      <point x="933" y="1098" type="line"/>
      <point x="933" y="629" type="line"/>
      <point x="1222" y="1098" type="line"/>
      <point x="1555" y="1098" type="line"/>
      <point x="1166" y="550" type="line"/>
      <point x="1576" y="0" type="line"/>
      <point x="1257" y="0" type="line"/>
      <point x="933" y="468" type="line"/>
      <point x="933" y="0" type="line"/>
      <point x="670" y="0" type="line"/>
      <point x="670" y="468" type="line"/>
      <point x="347" y="0" type="line"/>
      <point x="28" y="0" type="line"/>
      <point x="438" y="550" type="line"/>
      <point x="49" y="1098" type="line"/>
      <point x="382" y="1098" type="line"/>
    </contour>
  </outline>
</glyph>
<glyph name="afii10073" format="1">
  <advance width="1014"/>
  <unicode hex="0437"/>
  <outline>
    <contour>
      <point x="468" y="1084" type="curve" smooth="yes"/>
      <point x="711" y="1084"/>
      <point x="928" y="1004"/>
      <point x="928" y="798" type="curve" smooth="yes"/>
      <point x="928" y="691"/>
      <point x="869" y="592"/>
      <point x="771" y="561" type="curve"/>
      <point x="869" y="527"/>
      <point x="955" y="418"/>
      <point x="955" y="303" type="curve" smooth="yes"/>
      <point x="955" y="55"/>
      <point x="738" y="-20"/>
      <point x="491" y="-20" type="curve" smooth="yes"/>
      <point x="305" y="-20"/>
      <point x="169" y="22"/>
      <point x="79" y="86" type="curve"/>
      <point x="119" y="271" type="line"/>
      <point x="199" y="222"/>
      <point x="340" y="186"/>
      <point x="497" y="186" type="curve" smooth="yes"/>
      <point x="653" y="186"/>
      <point x="711" y="236"/>
      <point x="711" y="330" type="curve" smooth="yes"/>
      <point x="711" y="402"/>
      <point x="637" y="447"/>
      <point x="524" y="447" type="curve" smooth="yes"/>
      <point x="292" y="447" type="line"/>
      <point x="292" y="640" type="line"/>
      <point x="525" y="640" type="line" smooth="yes"/>
      <point x="629" y="640"/>
      <point x="682" y="692"/>
      <point x="682" y="760" type="curve" smooth="yes"/>
      <point x="682" y="850"/>
      <point x="611" y="888"/>
      <point x="466" y="888" type="curve" smooth="yes"/>
      <point x="303" y="888"/>
      <point x="191" y="864"/>
      <point x="121" y="823" type="curve"/>
      <point x="70" y="1009" type="line"/>
      <point x="161" y="1066"/>
      <point x="329" y="1084"/>
    </contour>
  </outline>
</glyph>
<glyph name="afii10077" format="1">
  <advance width="1245"/>
  <unicode hex="043B"/>
  <outline>
    <contour>
      <point x="451" y="377" type="line" smooth="yes"/>
      <point x="451" y="86"/>
      <point x="249" y="-29"/>
      <point x="-37" y="-29" type="curve"/>
      <point x="-37" y="191" type="line"/>
      <point x="-9" y="196" type="line"/>
      <point x="147" y="214"/>
      <point x="168" y="244"/>
      <point x="168" y="416" type="curve" smooth="yes"/>
      <point x="168" y="1098" type="line"/>
      <point x="1143" y="1098" type="line"/>
      <point x="1143" y="1" type="line"/>
      <point x="860" y="1" type="line"/>
      <point x="860" y="880" type="line"/>
      <point x="451" y="880" type="line"/>
    </contour>
  </outline>
</glyph>
<glyph name="afii10079" format="1">
  <advance width="1219"/>
  <unicode hex="043D"/>
  <outline>
    <contour>
      <point x="104" y="1098" type="line"/>
      <point x="387" y="1098" type="line"/>
      <point x="387" y="699" type="line"/>
      <point x="839" y="699" type="line"/>
      <point x="839" y="1098" type="line"/>
      <point x="1122" y="1098" type="line"/>
      <point x="1122" y="0" type="line"/>
      <point x="839" y="0" type="line"/>
      <point x="839" y="487" type="line"/>
      <point x="387" y="487" type="line"/>
      <point x="387" y="0" type="line"/>
      <point x="104" y="0" type="line"/>
    </contour>
  </outline>
</glyph>
<glyph name="afii10081" format="1">
  <advance width="1209"/>
  <unicode hex="043F"/>
  <outline>
    <contour>
      <point x="104" y="1098" type="line"/>
      <point x="1111" y="1098" type="line"/>
      <point x="1111" y="0" type="line"/>
      <point x="828" y="0" type="line"/>
      <point x="828" y="884" type="line"/>
      <point x="387" y="884" type="line"/>
      <point x="387" y="0" type="line"/>
      <point x="104" y="0" type="line"/>
    </contour>
  </outline>
</glyph>
<glyph name="afii10088" format="1">
  <advance width="1240"/>
  <unicode hex="0446"/>
  <outline>
    <contour>
      <point x="800" y="215" type="line"/>
      <point x="800" y="1098" type="line"/>
      <point x="1083" y="1098" type="line"/>
      <point x="1083" y="96" type="line"/>
      <point x="1214" y="96" type="line"/>
      <point x="1214" y="-362" type="line"/>
      <point x="975" y="-362" type="line"/>
      <point x="953" y="0" type="line"/>
      <point x="104" y="0" type="line"/>
      <point x="104" y="1098" type="line"/>
      <point x="387" y="1098" type="line"/>
      <point x="387" y="215" type="line"/>
    </contour>
  </outline>
</glyph>
<glyph name="afii10101" format="1">
  <advance width="991"/>
  <unicode hex="0454"/>
  <outline>
    <contour>
      <point x="849" y="648" type="line"/>
      <point x="849" y="460" type="line"/>
      <point x="343" y="460" type="line"/>
      <point x="372" y="265"/>
      <point x="482" y="185"/>
      <point x="636" y="185" type="curve" smooth="yes"/>
      <point x="738" y="185"/>
      <point x="825" y="226"/>
      <point x="885" y="270" type="curve"/>
      <point x="940" y="74" type="line"/>
      <point x="846" y="13"/>
      <point x="756" y="-21"/>
      <point x="620" y="-21" type="curve" smooth="yes"/>
      <point x="301" y="-21"/>
      <point x="64" y="171"/>
      <point x="64" y="572" type="curve" smooth="yes"/>
      <point x="64" y="954"/>
      <point x="336" y="1117"/>
      <point x="599" y="1117" type="curve" smooth="yes"/>
      <point x="747" y="1117"/>
      <point x="843" y="1084"/>
      <point x="928" y="1022" type="curve"/>
      <point x="881" y="828" type="line"/>
      <point x="836" y="861"/>
      <point x="728" y="909"/>
      <point x="631" y="909" type="curve" smooth="yes"/>
      <point x="489" y="909"/>
      <point x="370" y="842"/>
      <point x="342" y="648" type="curve"/>
    </contour>
  </outline>
</glyph>
